<svg width="32" height="32" viewBox="0 0 32 32" fill="none" xmlns="http://www.w3.org/2000/svg">
<g clip-path="url(#clip0_125_14299)">
<rect width="32" height="32" rx="2" fill="#232728"/>
<path fill-rule="evenodd" clip-rule="evenodd" d="M8 18.0502C8 21.9796 8.00445 26.2788 8.00742 26.4037C8.00742 26.4992 8.02966 26.5901 8.06822 26.6672C8.16165 26.8644 8.36037 27 8.58578 27C8.82158 27 9.01882 26.8367 9.01882 26.8367C9.01882 26.8367 23.5314 17.0948 23.5284 17.0686C23.8087 16.8622 24 16.4769 24 16.0316C24 15.594 23.8161 15.2149 23.5432 15.0038C23.5477 14.9699 9.03216 5.19262 8.93873 5.13252C8.83641 5.05085 8.71629 5 8.58282 5C8.2788 5 8.03263 5.24501 8.01038 5.55628C8.00445 5.6965 8 5.84598 8 5.99853V10.7415L17.9108 15.6232L17.8827 15.6155C18.025 15.691 18.1081 15.7373 18.1081 15.7373V15.7404C18.1822 15.7989 18.2326 15.8837 18.2326 15.9869C18.2326 16.0901 18.1822 16.1764 18.1081 16.2335V16.235C18.1081 16.235 12.3303 19.6605 12.3125 19.6605C12.2621 19.6605 12.2221 19.6174 12.2221 19.565V16.0316L8 18.0502Z" fill="#F6F6F6"/>
</g>
<defs>
<clipPath id="clip0_125_14299">
<rect width="32" height="32" fill="white"/>
</clipPath>
</defs>
</svg>
